<?xml version="1.0" encoding="UTF-8" standalone="no"?>
<!DOCTYPE svg PUBLIC "-//W3C//DTD SVG 1.1//EN" "http://www.w3.org/Graphics/SVG/1.1/DTD/svg11.dtd">
<svg width="185" height="68" viewBox="0 0 185 68" version="1.1" xmlns="http://www.w3.org/2000/svg" xmlns:xlink="http://www.w3.org/1999/xlink">
<path fill="#0000dc" d="M-0.06,3l0,26.6l4.14,0l0,-26.6zm4.29,0l2.59,26.6l1.4,0l-2.58,-26.6zm6.73,0l-2.58,26.6l1.4,0l2.59,-26.6zm1.56,0l0,26.6l4.18,0l0,-26.6zm15.69,0l0,20.48c0,3.57,3.23,6.35,6.69,6.35c3.46,0,6.69,-2.78,6.69,-6.35l0,-20.48l-4.18,0l0,20.33c0,1.44,-1.29,2.47,-2.51,2.47c-1.22,0,-2.51,-1.03,-2.51,-2.47l0,-20.33zm26.26,0l0,26.6l4.18,0l0,-26.6zm4.33,0l3.95,26.6l1.45,0l-3.95,-26.6zm5.55,0l0,26.6l4.18,0l0,-26.6zm18.05,25.12l0,1.48l11.36,0l0,-1.48l-3.61,0l0,-23.64l3.61,0l0,-1.48l-11.36,0l0,1.48l3.57,0l0,23.64z"></path><path fill="#0000dc" d="M6.21,41.5l-5.74,26.6l2.13,0l1.79,-8.4l7.75,0l1.82,8.4l2.13,0l-5.66,-26.6l-2.05,0l3.42,16.3l-7.07,0l3.49,-16.3zm22.72,0l0,26.6l2.06,0l0,-11.25l3.45,0l6.31,11.25l2.36,0l-6.5,-11.48c3.12,-0.26,5.59,-2.88,5.59,-6.11l0,-2.66c0,-3.46,-2.89,-6.35,-6.35,-6.35zm6.73,13.41l-4.67,0l0,-11.51l4.67,0c2.43,0,4.52,1.98,4.52,4.48l0,2.4c0,2.73,-1.97,4.63,-4.52,4.63zm24.81,-11.51l0,24.7l2.06,0l0,-24.7l7.1,0l0,-1.9l-16.26,0l0,1.9zm27.63,24.93c3.65,0,6.57,-2.59,6.57,-6.35l0,-1.63c0,-4.33,-3.64,-5.82,-6.15,-6.39c-2.32,-0.53,-4.94,-1.4,-4.94,-4.52l0,-1.78c0,-2.47,2.13,-4.41,4.52,-4.41c2.36,0,4.52,1.94,4.52,4.41l0,0.95l2.05,0l0,-0.99c0,-3.65,-2.92,-6.35,-6.57,-6.35c-3.65,0,-6.57,2.7,-6.57,6.35l0,1.82c0,4.45,3.76,5.85,6.08,6.39c2.43,0.53,5.01,1.4,5.01,4.56l0,1.55c0,2.47,-2.13,4.41,-4.48,4.41c-2.4,0,-4.56,-1.94,-4.56,-4.41l0,-0.87l-2.05,0l0,0.91c0,3.76,2.92,6.35,6.57,6.35z"></path><path fill="#0000dc" d="M111.23,3.01l0,10.68l3.55,0c3.63,0,5.67,-1.92,5.67,-5.34c0,-3.42,-2.04,-5.34,-5.67,-5.34zm2.19,1.89l1.33,0c2.3,0,3.42,1.14,3.42,3.45c0,2.31,-1.12,3.45,-3.42,3.45l-1.33,0zm10.71,-0.09l0,-1.8l-2.1,0l0,1.8zm0,8.88l0,-7.62l-2.1,0l0,7.62zm4.7,-7.83c-1.92,0,-3.15,1.5,-3.15,3.87c0,2.37,1.21,3.87,3.12,3.87c0.91,0,1.56,-0.35,2.13,-1.14l0.03,0l0,0.67c0,1.49,-0.59,1.97,-1.53,1.97c-0.8,0,-1.28,-0.35,-1.32,-0.93l-2.1,0c0.12,1.5,1.27,2.43,3.37,2.43c2.19,0,3.62,-1.08,3.62,-3.39l0,-7.14l-1.98,0l0,1.02l-0.03,0c-0.59,-0.87,-1.24,-1.23,-2.16,-1.23zm0.57,1.72c0.98,0,1.62,0.86,1.62,2.15c0,1.29,-0.64,2.14,-1.62,2.14c-0.93,0,-1.53,-0.82,-1.53,-2.14c0,-1.32,0.6,-2.15,1.53,-2.15zm7.74,-2.77l0,-1.8l-2.1,0l0,1.8zm0,8.88l0,-7.62l-2.1,0l0,7.62zm5.45,-1.58c-0.71,0,-0.99,-0.33,-0.99,-1.17l0,-3.31l1.46,0l0,-1.56l-1.46,0l0,-1.98l-2.1,0l0,1.98l-1.22,0l0,1.56l1.22,0l0,3.69c0,1.77,0.77,2.47,2.53,2.47c0.35,0,0.82,-0.06,1.1,-0.15l0,-1.6c-0.13,0.04,-0.34,0.07,-0.54,0.07zm4.92,-6.28c-2.17,0,-3.22,1.17,-3.29,2.62l2.03,0c0.03,-0.72,0.48,-1.15,1.26,-1.15c0.74,0,1.25,0.39,1.25,1.35l0,0.27c-0.48,0.03,-1.34,0.12,-1.91,0.21c-2.2,0.34,-2.95,1.18,-2.95,2.43c0,1.32,0.98,2.31,2.6,2.31c1.04,0,1.9,-0.39,2.47,-1.2l0.03,0c0,0.37,0.03,0.7,0.1,1.02l1.9,0c-0.14,-0.51,-0.22,-1.13,-0.22,-2.09l0,-2.76c0,-1.99,-1.11,-3.01,-3.27,-3.01zm1.25,4.65c0,0.69,-0.07,1.09,-0.44,1.45c-0.3,0.3,-0.76,0.44,-1.19,0.44c-0.74,0,-1.13,-0.39,-1.13,-0.96c0,-0.62,0.36,-0.9,1.23,-1.05c0.45,-0.08,1.08,-0.14,1.53,-0.17zm6.08,3.21l0,-10.68l-2.1,0l0,10.68zm4.13,-8.88l0,-1.8l-2.09,0l0,1.8zm0,8.88l0,-7.62l-2.09,0l0,7.62zm5.03,-7.86c-2.18,0,-3.23,1.17,-3.3,2.62l2.04,0c0.03,-0.72,0.48,-1.15,1.26,-1.15c0.73,0,1.24,0.39,1.24,1.35l0,0.27c-0.48,0.03,-1.33,0.12,-1.9,0.21c-2.21,0.34,-2.96,1.18,-2.96,2.43c0,1.32,0.98,2.31,2.6,2.31c1.05,0,1.9,-0.39,2.47,-1.2l0.03,0c0,0.37,0.03,0.7,0.11,1.02l1.89,0c-0.14,-0.51,-0.21,-1.13,-0.21,-2.09l0,-2.76c0,-1.99,-1.11,-3.01,-3.27,-3.01zm1.24,4.65c0,0.69,-0.07,1.09,-0.43,1.45c-0.3,0.3,-0.77,0.44,-1.2,0.44c-0.74,0,-1.13,-0.39,-1.13,-0.96c0,-0.62,0.36,-0.9,1.23,-1.05c0.45,-0.08,1.08,-0.14,1.53,-0.17z"></path><path fill="#0000dc" d="M115.58,31.69l3.69,-10.68l-1.46,0l-1.62,4.75c-0.52,1.52,-1.02,3.05,-1.5,4.58l-0.02,0c-0.48,-1.53,-0.97,-3.06,-1.49,-4.58l-1.63,-4.75l-1.44,0l3.67,10.68zm9.53,-6.48l0,-1.14l-5.96,0l0,1.08l4.33,0l0,0.03l-4.48,5.37l0,1.14l6.25,0l0,-1.08l-4.63,0l0,-0.03zm4.57,-1.35c-2.23,0,-3.62,1.53,-3.62,4.02c0,2.49,1.39,4.02,3.62,4.02c2.23,0,3.63,-1.53,3.63,-4.02c0,-2.49,-1.4,-4.02,-3.63,-4.02zm0,1.08c1.39,0,2.25,1.12,2.25,2.94c0,1.81,-0.86,2.94,-2.25,2.94c-1.38,0,-2.23,-1.13,-2.23,-2.94c0,-1.82,0.85,-2.94,2.23,-2.94zm8.96,-0.95c-0.98,0,-1.74,0.41,-2.25,1.25l-0.03,0l0,-1.17l-1.27,0l0,7.62l1.33,0l0,-3.89c0,-1.67,0.81,-2.61,2.25,-2.61c0.16,0,0.36,0.03,0.52,0.05l0,-1.19c-0.16,-0.04,-0.39,-0.06,-0.55,-0.06zm7.89,0.08l-1.4,0l-2.22,6.06l-0.03,0l-2.19,-6.06l-1.42,0l2.89,7.65c-0.49,1.35,-0.88,1.71,-1.89,1.71c-0.24,0,-0.45,-0.03,-0.63,-0.09l0,1.11c0.2,0.06,0.44,0.07,0.69,0.07c1.64,0,2.39,-0.54,3.14,-2.49zm10.99,7.62l-3.82,-4.17l3.42,-3.45l-1.64,0l-3.07,3.16l-0.03,0l0,-6.22l-1.32,0l0,10.68l1.32,0l0,-3.81l0.03,0l3.37,3.81zm4.43,-7.7c-0.98,0,-1.74,0.41,-2.25,1.25l-0.03,0l0,-1.17l-1.26,0l0,7.62l1.32,0l0,-3.89c0,-1.67,0.81,-2.61,2.25,-2.61c0.16,0,0.36,0.03,0.52,0.05l0,-1.19c-0.16,-0.04,-0.39,-0.06,-0.55,-0.06zm4.3,-0.84l1.85,-2.14l-1.7,0l-1.29,2.14zm-0.04,0.71c-1.94,0,-2.99,1.09,-3.06,2.53l1.32,0c0.04,-0.9,0.63,-1.51,1.74,-1.51c1.02,0,1.72,0.52,1.72,1.78l0,0.3c-0.6,0.05,-1.53,0.15,-2.2,0.26c-2.19,0.34,-2.9,1.14,-2.9,2.4c0,1.29,0.99,2.23,2.58,2.23c1.23,0,2.12,-0.46,2.64,-1.27l0.03,0c0,0.34,0.03,0.76,0.11,1.11l1.2,0c-0.11,-0.47,-0.18,-1.11,-0.18,-1.95l0,-2.93c0,-2.01,-1.14,-2.95,-3,-2.95zm1.72,4.57c0,0.9,-0.15,1.32,-0.61,1.8c-0.38,0.39,-0.96,0.6,-1.58,0.6c-0.99,0,-1.56,-0.52,-1.56,-1.3c0,-0.75,0.45,-1.13,1.76,-1.32c0.58,-0.11,1.41,-0.2,1.99,-0.24zm5.94,-4.57c-1.66,0,-2.82,0.9,-2.82,2.2c0,1.67,1.31,1.92,2.58,2.24c1.47,0.36,2.1,0.52,2.1,1.41c0,0.69,-0.66,1.14,-1.65,1.14c-1.18,0,-1.87,-0.6,-1.87,-1.7l-1.34,0c0.02,1.79,1.2,2.75,3.2,2.75c1.84,0,3.01,-0.92,3.01,-2.28c0,-1.77,-1.48,-2.09,-2.88,-2.43c-1.27,-0.3,-1.83,-0.44,-1.83,-1.23c0,-0.66,0.57,-1.08,1.49,-1.08c1.06,0,1.69,0.55,1.69,1.57l1.29,0c0,-1.68,-1.11,-2.59,-2.97,-2.59zm10.74,0.21l-1.39,0l-2.22,6.06l-0.03,0l-2.19,-6.06l-1.43,0l2.9,7.65c-0.5,1.35,-0.89,1.71,-1.89,1.71c-0.24,0,-0.45,-0.03,-0.63,-0.09l0,1.11c0.19,0.06,0.43,0.07,0.69,0.07c1.63,0,2.38,-0.54,3.13,-2.49z">
</path>
</svg>